<?xml version="1.0" encoding="UTF-8"?><!DOCTYPE svg PUBLIC "-//W3C//DTD SVG 1.1//EN" "http://www.w3.org/Graphics/SVG/1.1/DTD/svg11.dtd"><svg xmlns="http://www.w3.org/2000/svg"><symbol id="icon-arr-r" viewBox="0 0 207 331">
    <path d="M48.5 165L199 305.7 178.3 325 7 165 178.3 5 199 24.4z"/>
</symbol><symbol id="icon-close" viewBox="0 0 14.9 14.9">
    <title>
        Delete 14.3
    </title>
    <path d="M9.5 7.4l4.9 4.9c.6.6.6 1.5 0 2.1s-1.5.6-2.1 0L7.4 9.5l-4.9 4.9c-.6.6-1.5.6-2.1 0s-.6-1.5 0-2.1l4.9-4.9L.4 2.5C-.2 1.9-.2 1 .4.4s1.5-.6 2.1 0l4.9 4.9L12.3.4c.6-.6 1.5-.6 2.1 0s.6 1.5 0 2.1L9.5 7.4z"/>
</symbol><symbol id="icon-facebook" viewBox="0 0 10 19">
    <title>
        facebook
    </title>
    <path d="M9.766.157v2.946H8.014c-.64 0-1.071.134-1.295.402-.223.268-.335.67-.335 1.205v2.11h3.27l-.435 3.303H6.384v8.471H2.97v-8.47H.123V6.82H2.97V4.387c0-1.384.387-2.457 1.161-3.22C4.904.404 5.934.023 7.222.023c1.093 0 1.941.045 2.544.134z" fill-rule="evenodd"/>
</symbol></svg>